<svg xmlns="http://www.w3.org/2000/svg" viewBox="0 0 333334 183512" shape-rendering="geometricPrecision" text-rendering="geometricPrecision" image-rendering="optimizeQuality" fill-rule="evenodd" clip-rule="evenodd"><path d="M0 0h22196v183512H0V0zm277228 0h11098v183512h-11098V0zm-24398 0h5550v183512h-5550V0zM138416 0h15854v183512h-15854V0zm-30739 0h11891v183512h-11891V0zM41046 0h6738v183512h-6738V0zm266130 0h26159v183512h-26159V0zm-93012 0h19819v183512h-19819V0zm-41044 0h22196v183512h-22196V0zM66633 0h22196v183512H66633V0z"/></svg>