<?xml version="1.0" encoding="iso-8859-1"?>
<!-- Generator: Adobe Illustrator 16.0.0, SVG Export Plug-In . SVG Version: 6.00 Build 0)  -->
<!DOCTYPE svg PUBLIC "-//W3C//DTD SVG 1.1//EN" "http://www.w3.org/Graphics/SVG/1.1/DTD/svg11.dtd">
<svg version="1.1" xmlns="http://www.w3.org/2000/svg" xmlns:xlink="http://www.w3.org/1999/xlink" x="0px" y="0px" width="512px"
	 height="512px" viewBox="0 0 512 512" style="enable-background:new 0 0 512 512;" xml:space="preserve">
<g id="Capa_1">
	<linearGradient id="SVGID_1_" gradientUnits="userSpaceOnUse" x1="-306" y1="-612" x2="-306" y2="-1124">
		<stop  offset="0" style="stop-color:#281A93"/>
		<stop  offset="0.1168" style="stop-color:#35239A"/>
		<stop  offset="0.5033" style="stop-color:#5D3FB0"/>
		<stop  offset="0.8112" style="stop-color:#7551BD"/>
		<stop  offset="1" style="stop-color:#7E57C2"/>
	</linearGradient>
	<circle style="fill:url(#SVGID_1_);stroke:#1D1D1B;stroke-miterlimit:10;" cx="-306" cy="-868" r="256"/>
	<linearGradient id="SVGID_2_" gradientUnits="userSpaceOnUse" x1="-306" y1="-635" x2="-306" y2="-1101">
		<stop  offset="0" style="stop-color:#283593"/>
		<stop  offset="0.1168" style="stop-color:#353A9A"/>
		<stop  offset="0.5033" style="stop-color:#5D4AB0"/>
		<stop  offset="0.8112" style="stop-color:#7553BD"/>
		<stop  offset="1" style="stop-color:#7E57C2"/>
	</linearGradient>
	<circle style="fill:url(#SVGID_2_);" cx="-306" cy="-868" r="233"/>
	<linearGradient id="SVGID_3_" gradientUnits="userSpaceOnUse" x1="-557.0557" y1="-1749.7266" x2="-195.0177" y2="-1387.6886">
		<stop  offset="0" style="stop-color:#283593"/>
		<stop  offset="0.0824" style="stop-color:#343A9A"/>
		<stop  offset="0.3331" style="stop-color:#5446AB"/>
		<stop  offset="0.5751" style="stop-color:#6B50B8"/>
		<stop  offset="0.8024" style="stop-color:#7955BF"/>
		<stop  offset="1" style="stop-color:#7E57C2"/>
	</linearGradient>
	<circle style="fill:url(#SVGID_3_);" cx="-376.037" cy="-1568.708" r="256"/>
	<g>
		<path style="fill-rule:evenodd;clip-rule:evenodd;fill:#FFFFFF;" d="M-337.168-1396.365
			c-30.739,29.861-80.229,32.2-119.913,26.476c-11.892-1.715-23.904-4.284-35.447-7.704c-24.664-7.307-61.942-21.959-66.427-51.985
			c-1.455-9.741,1.579-13.383,11.166-14.244c4.417-0.396,8.862-0.472,13.274-0.901c2.333-0.225,4.675-0.728,6.927-1.403
			c3.651-1.097,5.345-3.895,4.664-7.613c-0.691-3.78-3.7-4.232-6.904-3.931c-12.066,1.134-24.149,2.107-36.197,3.41
			c-11.765,1.271-23.507,2.661-35.375,2.375c-4.085-0.097-7.715-0.934-9.479-5.228c-2.278-5.539,0.25-9.832,6.431-11.204
			c12.491-2.773,25.202-3.182,37.903-3.756c7.45-0.337,7.448-0.412,7.162-8.23c-0.481-13.201,7.339-23.199,19.938-26.025
			c4.037-0.906,7.559-0.144,11.116,1.524c15.709,7.366,26.955,22.454,42.789,30.365c16.546,8.266,35.728,12.158,53.908,8.225
			c28.882-6.248,39.36-33.876,13.151-52.815c-17.628-12.738-40.354-17.387-61.529-15.745c-5.61,0.435-11.234,1.102-16.864,1.148
			c-3.699,0.03-7.968-0.093-11.31-1.921c-1.782-0.975-3.512-2.772-4.384-4.658c-2.601-5.627,1.51-10.777,6.728-12.357
			c4.849-1.468,10.325-0.737,15.318-0.68c5.308,0.062,10.616,0.066,15.925,0.053c2.982-0.007,5.966-0.022,8.95-0.037
			c3.241-0.017,6.6,0.196,9.71-0.705c4.501-1.304,2.679-9.942,1.031-10.976c-6.443-4.04-20.219-0.502-27.747-0.451
			c-25.101,0.17-41.601-9.974-53.931-30.591c-2.624-4.385-5.285-8.769-6.674-13.781c-2.096-7.56,0.065-12.287,7.862-12.949
			c5.438-0.462,33.639,0.432,28.376-11.057c-3.124-6.809-15.458-4.404-21.122-4.151c-15.949,0.714-31.904,2.199-47.852,2.943
			c-2.357,0.109-4.754,0.113-7.09-0.186c-5.537-0.712-7.743-3.367-8.508-9.812c-0.57-4.815,1.7-9.249,6.937-9.98
			c10.188-1.423,20.956-1.142,31.576-1.567c8.083-0.323,8.79-2.276,8.655-10.225c-0.072-4.22-0.646-8.382-0.151-12.666
			c0.843-7.306-0.43-8.304-7.852-7.905c-17.12,0.921-34.24,1.94-51.372,2.603c-8.239,0.319-12.765-4.924-11.896-12.976
			c0.46-4.274,2.259-7.538,6.786-8.313c4.296-0.736,10.947-0.735,15.544-0.812c32.223-0.543,61.838-2.591,94.012-4.65
			c7.955-0.509,9.768-12.031,0.734-11.558c-11.264,0.591-32.345,3.146-34.609,0.673c-3.707-4.05-0.212-8.928,2.567-12.373
			c26.59-32.962,67.505-50.585,108.301-53.645c30.612-2.297,70.152-3.541,96.815,14.653c16.807,11.468,29.347,32.078,31.99,52.494
			c1.464,11.315,1.952,22.671,0.222,34.017c-1.354,10.591-5.93,20.001-10.367,29.44c-1.32,2.81-4.155,4.119-6.691,5.651
			c-5.629,3.4-12.003,4.667-18.098,6.737c-11.587,2.568-23.33,3.727-35.172,3.678c-10.945-0.046-12.624-1.756-13.432-13.119
			c-0.386-5.422-0.25-10.899-0.896-16.284c-1.799-14.974-14.285-29.027-27.929-29.894c-14.89-0.948-28.746,2.922-39.709,14.179
			c-8.856,9.088-11.631,19.884-8.661,32.421c3.217,13.589,13.532,20.139,24.538,25.503c31.587,15.398,65.479,20.883,91.631,46.936
			c38.049,37.905,59.089,91.168,32.561,141.849C-314-1423.954-324.177-1408.985-337.168-1396.365z"/>
		<path style="fill-rule:evenodd;clip-rule:evenodd;fill:#FFFFFF;" d="M-559.171-1534.38c-5.329,0.196-10.649,0.557-15.976,0.763
			c-4.381,0.171-9.221,0.026-13.226-2.018c-3.402-1.734-5.441-5.762-3.246-9.325c3.958-6.422,13.872-5.759,20.287-6.299
			c5.565-0.468,11.148-0.7,16.728-0.905c3.178-0.116,6.357-0.198,9.537-0.284c5.058-0.129,10.43-1.607,14.696,1.57
			c5.352,3.981,4.931,9.803-0.903,12.993c-4.549,2.489-9.652,2.539-14.641,2.895C-550.328-1534.674-554.75-1534.542-559.171-1534.38
			z"/>
		<path style="fill-rule:evenodd;clip-rule:evenodd;fill:#FFFFFF;" d="M-628.896-1633.359c-3.01,0.084-6.013,0.333-9.023,0.429
			c-2.476,0.078-5.219-0.169-7.528-2.293c-1.961-1.804-3.199-5.869-2.031-9.384c2.105-6.333,7.729-5.463,11.348-5.868
			c3.14-0.352,6.294-0.467,9.447-0.555c1.797-0.051,3.593-0.064,5.392-0.084c2.86-0.023,5.868-1.387,8.349,1.875
			c3.112,4.091,2.996,9.896-0.239,12.961c-2.523,2.392-5.41,2.336-8.225,2.586C-623.897-1633.468-626.397-1633.429-628.896-1633.359
			z"/>
	</g>
	<path style="fill-rule:evenodd;clip-rule:evenodd;fill:#FFFFFF;" d="M-307.921-1541.992c-3.087-5.722-6.651-10.706-10.607-16.841
		c-7.307-11.337-16.417-19.569-25.573-28.586c-1.51-11.79,1.549-27.736,5.282-38.867c2.103-6.265,8.894-22.341,8.894-22.341
		c4.961-1.987,10.702-2.615,16.973-6.55c2.378-1.493,5.036-2.767,6.27-5.51c4.147-9.215,8.424-18.403,9.675-28.75
		c16.711-10.376,35.179-15.234,53.939-19.206c18.318-3.878,39.382-3.438,57.307,2.24c17.251,5.463,39.337,16.373,49.055,33.378
		c5.995,10.49,10.315,30.991,7.501,43.018c-3.951,16.88-15.047,33.009-30.615,39.237c-8.155,3.263-20.115,5.625-28.843,4.249
		c-21.392-3.375-9.382-33.034-26.218-42.902c-8.771-5.139-21.305-3.86-30.133,0.541c-8.289,4.134-15.756,12.838-15.37,23.193
		c0.785,20.919,36.177,29.38,50.381,36.372c19.85,9.771,40.058,21.365,55.451,38.251c8.297,9.101,15.025,19.837,19.011,31.824
		c3.805,11.445,5.071,27.114,2.428,38.994c-10.544,47.382-56.827,77.189-100.258,79.677c-20.425,1.171-41.224-1.278-60.684-8.303
		c-9.462-3.416-18.862-7.036-28.268-10.625c-1.268-0.483-7.378-4.62-8.3-3.679c5.49-5.596,8.917-11.858,13.805-18.975
		c7.69-11.189,10.796-20.017,16.322-32.544c0.973-2.207,3.507-7.707,4.085-9.626c17.295,6.545,70.091,21.551,75.563-9.316
		c3.868-21.822-22.317-28.808-36.721-33.423c-14.76-4.729-28.18-10.511-42.44-16.801
		C-300.848-1524.236-304.468-1535.588-307.921-1541.992z"/>
	<linearGradient id="SVGID_4_" gradientUnits="userSpaceOnUse" x1="-1143.0762" y1="-1486.7129" x2="-781.0382" y2="-1124.6749">
		<stop  offset="0" style="stop-color:#283593"/>
		<stop  offset="0.0824" style="stop-color:#343A9A"/>
		<stop  offset="0.3331" style="stop-color:#5446AB"/>
		<stop  offset="0.5751" style="stop-color:#6B50B8"/>
		<stop  offset="0.8024" style="stop-color:#7955BF"/>
		<stop  offset="1" style="stop-color:#7E57C2"/>
	</linearGradient>
	<circle style="fill:url(#SVGID_4_);" cx="-962.058" cy="-1305.694" r="256"/>
	<g>
		<path style="fill-rule:evenodd;clip-rule:evenodd;fill:#FFFFFF;" d="M-939.13-1158.79
			c-26.681,23.533-67.812,23.497-100.489,17.166c-9.792-1.897-19.65-4.506-29.085-7.803c-20.159-7.043-50.485-20.682-53.005-45.758
			c-0.818-8.135,1.844-11.034,9.828-11.365c3.679-0.152,7.367-0.037,11.042-0.217c1.943-0.094,3.906-0.417,5.8-0.888
			c3.071-0.764,4.587-3.015,4.171-6.126c-0.422-3.162-2.898-3.657-5.568-3.535c-10.05,0.458-20.108,0.783-30.151,1.382
			c-9.806,0.584-19.598,1.268-29.427,0.557c-3.384-0.244-6.361-1.082-7.652-4.714c-1.668-4.684,0.6-8.143,5.78-9.034
			c10.468-1.801,21.024-1.632,31.579-1.601c6.191,0.018,6.192-0.044,6.267-6.538c0.128-10.965,7.012-18.944,17.571-20.784
			c3.383-0.59,6.273,0.182,9.156,1.708c12.732,6.735,21.454,19.695,34.268,26.887c13.39,7.515,29.14,11.508,44.372,8.972
			c24.198-4.028,33.99-26.519,13.014-43.269c-14.109-11.267-32.768-16.028-50.392-15.513c-4.669,0.136-9.359,0.465-14.03,0.279
			c-3.068-0.123-6.604-0.396-9.301-2.044c-1.439-0.88-2.802-2.438-3.45-4.038c-1.931-4.77,1.684-8.876,6.073-9.978
			c4.079-1.023,8.591-0.198,12.729,0.048c4.398,0.263,8.8,0.479,13.203,0.68c2.473,0.113,4.948,0.22,7.423,0.327
			c2.688,0.116,5.465,0.426,8.08-0.197c3.785-0.901,2.618-8.138,1.293-9.061c-5.182-3.607-16.746-1.224-22.99-1.482
			c-20.82-0.861-34.098-9.931-43.499-27.52c-2-3.741-4.032-7.482-4.984-11.694c-1.436-6.352,0.545-10.186,7.037-10.423
			c4.527-0.166,27.875,1.701,23.971-8.036c-2.319-5.771-12.642-4.269-17.349-4.285c-13.254-0.044-26.542,0.549-39.796,0.529
			c-1.959-0.003-3.947-0.096-5.872-0.437c-4.563-0.812-6.286-3.101-6.663-8.476c-0.28-4.015,1.779-7.601,6.15-7.999
			c8.504-0.773,17.422-0.11,26.245-0.038c6.716,0.054,7.379-1.537,7.585-8.133c0.109-3.501-0.201-6.976,0.38-10.508
			c0.99-6.024-0.025-6.903-6.196-6.869c-14.232,0.081-28.469,0.242-42.701,0.107c-6.845-0.064-10.388-4.593-9.346-11.235
			c0.553-3.526,2.174-6.16,5.959-6.623c3.591-0.439,9.106-0.172,12.922-0.052c26.74,0.836,51.379,0.32,78.14-0.102
			c6.616-0.104,8.58-9.586,1.07-9.555c-9.364,0.04-26.946,1.317-28.725-0.824c-2.912-3.506,0.181-7.411,2.623-10.157
			c23.365-26.271,57.995-39.25,91.945-40.158c25.476-0.682,58.312-0.135,79.694,16.016c13.479,10.18,23.054,27.771,24.431,44.806
			c0.763,9.441,0.713,18.877-1.174,28.215c-1.545,8.728-5.716,16.349-9.772,23.998c-1.207,2.277-3.61,3.25-5.775,4.419
			c-4.803,2.595-10.139,3.39-15.275,4.864c-9.711,1.667-19.494,2.158-29.312,1.645c-9.074-0.475-10.398-1.959-10.614-11.415
			c-0.103-4.511,0.229-9.048-0.092-13.539c-0.894-12.488-10.686-24.639-21.965-25.903c-12.309-1.38-23.953,1.275-33.494,10.171
			c-7.706,7.183-10.438,16.024-8.476,26.538c2.125,11.396,10.417,17.239,19.328,22.127c25.577,14.029,53.461,19.931,74.106,42.578
			c30.037,32.95,45.356,77.956,21.335,118.921C-918.818-1180.74-927.854-1168.735-939.13-1158.79z"/>
		<path style="fill-rule:evenodd;clip-rule:evenodd;fill:#FFFFFF;" d="M-1117.705-1282.095c-4.426-0.05-8.853,0.036-13.277-0.005
			c-3.64-0.034-7.647-0.347-10.887-2.202c-2.752-1.574-4.282-4.995-2.319-7.862c3.539-5.167,11.732-4.221,17.073-4.413
			c4.633-0.166,9.271-0.135,13.906-0.083c2.64,0.031,5.28,0.09,7.92,0.146c4.199,0.095,8.712-0.916,12.124,1.889
			c4.278,3.515,3.697,8.325-1.268,10.738c-3.872,1.882-8.105,1.72-12.256,1.816
			C-1110.36-1281.986-1114.032-1282.054-1117.705-1282.095z"/>
		<path style="fill-rule:evenodd;clip-rule:evenodd;fill:#FFFFFF;" d="M-1171.568-1366.953c-2.5-0.05-5,0.036-7.5-0.004
			c-2.056-0.034-4.32-0.348-6.15-2.202c-1.554-1.574-2.418-4.994-1.31-7.862c1.998-5.167,6.627-4.222,9.644-4.413
			c2.618-0.166,5.238-0.136,7.856-0.083c1.492,0.03,2.982,0.09,4.475,0.145c2.372,0.095,4.921-0.916,6.848,1.889
			c2.417,3.516,2.088,8.325-0.716,10.738c-2.187,1.882-4.579,1.721-6.923,1.816
			C-1167.419-1366.844-1169.494-1366.912-1171.568-1366.953z"/>
	</g>
	<path style="fill-rule:evenodd;clip-rule:evenodd;fill:#FFFFFF;" d="M-909.064-1278.375c-2.331-4.868-5.088-9.143-8.123-14.388
		c-5.606-9.693-12.831-16.882-20.063-24.725c-0.781-9.836,2.392-22.937,5.932-32.017c1.994-5.111,8.267-18.17,8.267-18.17
		c4.193-1.45,8.978-1.741,14.335-4.753c2.032-1.143,4.287-2.094,5.419-4.319c3.806-7.475,7.72-14.923,9.17-23.453
		c14.271-7.937,29.779-11.228,45.493-13.772c15.345-2.484,32.793-1.278,47.429,4.146c14.087,5.219,31.965,15.146,39.344,29.636
		c4.552,8.938,7.315,26.109,4.502,35.97c-3.95,13.839-13.795,26.77-26.952,31.313c-6.893,2.38-16.904,3.861-24.086,2.371
		c-17.603-3.653-6.46-27.766-20.026-36.621c-7.068-4.612-17.512-4.052-25.008-0.755c-7.039,3.097-13.578,10.016-13.671,18.618
		c-0.185,17.377,28.825,25.807,40.324,32.171c16.069,8.896,32.363,19.315,44.453,33.932c6.516,7.878,11.667,17.049,14.493,27.147
		c2.698,9.643,3.123,22.686,0.457,32.431c-10.635,38.869-50.203,61.736-86.315,62.065c-16.983,0.155-34.132-2.706-49.987-9.308
		c-7.71-3.21-15.36-6.587-23.016-9.939c-1.032-0.452-5.933-4.125-6.735-3.382c4.775-4.42,7.867-9.477,12.205-15.183
		c6.823-8.971,9.751-16.167,14.833-26.333c0.896-1.791,3.216-6.25,3.772-7.819c14.081,6.118,57.259,20.669,63.03-4.708
		c4.079-17.94-17.355-24.779-29.115-29.181c-12.05-4.511-22.947-9.841-34.52-15.626
		C-903.909-1263.37-906.457-1272.927-909.064-1278.375z"/>
	<linearGradient id="SVGID_5_" gradientUnits="userSpaceOnUse" x1="256" y1="-612" x2="256" y2="-1124">
		<stop  offset="0" style="stop-color:#281A93"/>
		<stop  offset="0.1168" style="stop-color:#35239A"/>
		<stop  offset="0.5033" style="stop-color:#5D3FB0"/>
		<stop  offset="0.8112" style="stop-color:#7551BD"/>
		<stop  offset="1" style="stop-color:#7E57C2"/>
	</linearGradient>
	<circle style="fill:url(#SVGID_5_);stroke:#1D1D1B;stroke-miterlimit:10;" cx="256" cy="-868" r="256"/>
	<linearGradient id="SVGID_6_" gradientUnits="userSpaceOnUse" x1="256" y1="-635" x2="256" y2="-1101">
		<stop  offset="0" style="stop-color:#283593"/>
		<stop  offset="0.1168" style="stop-color:#353A9A"/>
		<stop  offset="0.5033" style="stop-color:#5D4AB0"/>
		<stop  offset="0.8112" style="stop-color:#7553BD"/>
		<stop  offset="1" style="stop-color:#7E57C2"/>
	</linearGradient>
	<circle style="fill:url(#SVGID_6_);" cx="256" cy="-868" r="233"/>
	<linearGradient id="SVGID_7_" gradientUnits="userSpaceOnUse" x1="256" y1="-50" x2="256" y2="-561.9995">
		<stop  offset="0" style="stop-color:#281A93"/>
		<stop  offset="0.1168" style="stop-color:#35239A"/>
		<stop  offset="0.5033" style="stop-color:#5D3FB0"/>
		<stop  offset="0.8112" style="stop-color:#7551BD"/>
		<stop  offset="1" style="stop-color:#7E57C2"/>
	</linearGradient>
	<circle style="fill:url(#SVGID_7_);stroke:#1D1D1B;stroke-miterlimit:10;" cx="256" cy="-306" r="256"/>
	<linearGradient id="SVGID_8_" gradientUnits="userSpaceOnUse" x1="256" y1="-73" x2="256" y2="-538.9995">
		<stop  offset="0" style="stop-color:#283593"/>
		<stop  offset="0.1168" style="stop-color:#353A9A"/>
		<stop  offset="0.5033" style="stop-color:#5D4AB0"/>
		<stop  offset="0.8112" style="stop-color:#7553BD"/>
		<stop  offset="1" style="stop-color:#7E57C2"/>
	</linearGradient>
	<circle style="fill:url(#SVGID_8_);" cx="256" cy="-306" r="233"/>
	
		<linearGradient id="SVGID_9_" gradientUnits="userSpaceOnUse" x1="-22.4141" y1="976.2959" x2="336.5878" y2="617.294" gradientTransform="matrix(0.7071 -0.7071 0.7071 0.7071 -418.4977 -196.3418)">
		<stop  offset="0" style="stop-color:#281A93"/>
		<stop  offset="0.1168" style="stop-color:#35239A"/>
		<stop  offset="0.5033" style="stop-color:#5D3FB0"/>
		<stop  offset="0.8112" style="stop-color:#7551BD"/>
		<stop  offset="1" style="stop-color:#7E57C2"/>
	</linearGradient>
	<path style="fill:url(#SVGID_9_);" d="M493.004,215.324c22.465,22.466,22.465,58.888,0,81.352L296.676,493.005
		c-22.465,22.464-58.888,22.464-81.352,0L18.996,296.676c-22.466-22.465-22.465-58.887,0-81.352L215.324,18.996
		c22.464-22.465,58.886-22.465,81.352,0L493.004,215.324z"/>
	<g>
		<defs>
			<path id="SVGID_10_" d="M472.285,218.641c20.495,20.496,20.495,53.725,0,74.219L293.172,471.974
				c-20.495,20.494-53.725,20.494-74.219,0L39.84,292.859c-20.496-20.495-20.495-53.724,0-74.219L218.953,39.527
				c20.494-20.495,53.723-20.495,74.219,0L472.285,218.641z"/>
		</defs>
		<clipPath id="SVGID_11_">
			<use xlink:href="#SVGID_10_"  style="overflow:visible;"/>
		</clipPath>
		<g style="clip-path:url(#SVGID_11_);">
			<ellipse style="fill:#283593;" cx="256" cy="446" rx="297.735" ry="75"/>
			<ellipse style="fill:#333999;" cx="256" cy="396.553" rx="283.691" ry="75"/>
			<ellipse style="fill:#3E3E9F;" cx="256" cy="347.105" rx="269.647" ry="75"/>
			<ellipse style="fill:#4842A5;" cx="256" cy="297.658" rx="255.604" ry="75"/>
			<ellipse style="fill:#5346AB;" cx="256" cy="248.211" rx="241.561" ry="75"/>
			<ellipse style="fill:#5E4AB0;" cx="256" cy="198.764" rx="227.517" ry="75"/>
			<ellipse style="fill:#694FB6;" cx="256" cy="149.315" rx="213.473" ry="75"/>
			<ellipse style="fill:#7353BC;" cx="256" cy="99.868" rx="199.43" ry="75"/>
			<ellipse style="fill:#7E57C2;" cx="256" cy="50.421" rx="185.386" ry="75"/>
		</g>
	</g>
</g>
<g id="Capa_2">
	<g>
		<path style="fill-rule:evenodd;clip-rule:evenodd;fill:#FFFFFF;" d="M-911.098-613.657c-30.739,29.861-80.229,32.2-119.913,26.476
			c-11.892-1.715-23.904-4.284-35.447-7.704c-24.664-7.307-61.942-21.959-66.427-51.985c-1.455-9.741,1.579-13.383,11.166-14.244
			c4.417-0.396,8.862-0.472,13.274-0.901c2.333-0.225,4.675-0.728,6.927-1.403c3.651-1.097,5.345-3.895,4.664-7.613
			c-0.691-3.78-3.7-4.232-6.904-3.931c-12.066,1.134-24.149,2.107-36.197,3.41c-11.765,1.271-23.507,2.661-35.375,2.375
			c-4.085-0.097-7.715-0.934-9.479-5.228c-2.278-5.539,0.25-9.832,6.431-11.204c12.491-2.773,25.202-3.182,37.903-3.756
			c7.45-0.337,7.448-0.412,7.162-8.23c-0.481-13.201,7.339-23.199,19.938-26.025c4.037-0.906,7.559-0.144,11.116,1.524
			c15.709,7.366,26.955,22.454,42.789,30.365c16.546,8.266,35.728,12.158,53.908,8.225c28.882-6.248,39.36-33.876,13.151-52.815
			c-17.628-12.738-40.354-17.387-61.529-15.745c-5.61,0.435-11.234,1.102-16.864,1.148c-3.699,0.03-7.968-0.093-11.31-1.921
			c-1.782-0.975-3.512-2.772-4.384-4.658c-2.601-5.627,1.51-10.777,6.728-12.357c4.849-1.468,10.325-0.737,15.318-0.68
			c5.308,0.062,10.616,0.066,15.925,0.053c2.982-0.007,5.966-0.022,8.95-0.037c3.241-0.017,6.6,0.196,9.71-0.705
			c4.501-1.304,2.679-9.942,1.031-10.976c-6.443-4.04-20.219-0.502-27.747-0.451c-25.101,0.17-41.601-9.974-53.931-30.591
			c-2.624-4.385-5.285-8.769-6.674-13.781c-2.096-7.56,0.065-12.287,7.862-12.949c5.438-0.462,33.639,0.432,28.376-11.057
			c-3.124-6.809-15.458-4.404-21.122-4.151c-15.949,0.714-31.904,2.199-47.852,2.943c-2.357,0.109-4.754,0.113-7.09-0.186
			c-5.537-0.712-7.743-3.367-8.508-9.812c-0.57-4.815,1.7-9.249,6.937-9.98c10.188-1.423,20.956-1.142,31.576-1.567
			c8.083-0.323,8.79-2.276,8.655-10.225c-0.072-4.22-0.646-8.382-0.151-12.666c0.843-7.306-0.43-8.304-7.852-7.905
			c-17.12,0.921-34.24,1.94-51.372,2.603c-8.239,0.319-12.765-4.924-11.896-12.976c0.46-4.274,2.259-7.538,6.786-8.313
			c4.296-0.736,10.947-0.735,15.544-0.812c32.223-0.543,61.838-2.591,94.012-4.65c7.955-0.509,9.768-12.031,0.734-11.558
			c-11.264,0.591-32.345,3.146-34.609,0.673c-3.707-4.05-0.212-8.928,2.567-12.373c26.59-32.962,67.505-50.585,108.301-53.645
			c30.612-2.297,70.152-3.541,96.815,14.653c16.807,11.468,29.347,32.078,31.99,52.494c1.464,11.315,1.952,22.671,0.222,34.017
			c-1.354,10.591-5.93,20.001-10.367,29.44c-1.32,2.81-4.155,4.119-6.691,5.651c-5.629,3.4-12.003,4.667-18.098,6.737
			c-11.587,2.568-23.33,3.727-35.172,3.678c-10.945-0.046-12.624-1.756-13.432-13.119c-0.386-5.422-0.25-10.899-0.896-16.284
			c-1.799-14.974-14.285-29.027-27.929-29.894c-14.89-0.948-28.746,2.922-39.709,14.179c-8.856,9.088-11.631,19.884-8.661,32.421
			c3.217,13.589,13.532,20.139,24.538,25.503c31.587,15.398,65.479,20.883,91.631,46.936
			c38.049,37.905,59.089,91.168,32.561,141.849C-887.929-641.246-898.106-626.277-911.098-613.657z"/>
		<path style="fill-rule:evenodd;clip-rule:evenodd;fill:#FFFFFF;" d="M-1133.101-751.672c-5.329,0.196-10.649,0.557-15.976,0.763
			c-4.381,0.171-9.221,0.026-13.226-2.018c-3.402-1.734-5.441-5.762-3.246-9.325c3.958-6.422,13.872-5.759,20.287-6.299
			c5.565-0.468,11.148-0.7,16.728-0.905c3.178-0.116,6.357-0.198,9.537-0.284c5.058-0.129,10.43-1.607,14.696,1.57
			c5.352,3.981,4.931,9.803-0.903,12.993c-4.549,2.489-9.652,2.539-14.641,2.895
			C-1124.257-751.966-1128.68-751.834-1133.101-751.672z"/>
		<path style="fill-rule:evenodd;clip-rule:evenodd;fill:#FFFFFF;" d="M-1202.826-850.651c-3.01,0.084-6.013,0.333-9.023,0.429
			c-2.476,0.078-5.219-0.169-7.528-2.293c-1.961-1.804-3.199-5.869-2.031-9.384c2.105-6.333,7.729-5.463,11.348-5.868
			c3.14-0.352,6.294-0.467,9.447-0.555c1.797-0.051,3.593-0.064,5.392-0.084c2.86-0.023,5.868-1.387,8.349,1.875
			c3.112,4.091,2.996,9.896-0.239,12.961c-2.523,2.392-5.41,2.336-8.225,2.586C-1197.827-850.76-1200.327-850.721-1202.826-850.651z
			"/>
	</g>
	<path style="fill-rule:evenodd;clip-rule:evenodd;fill:#FFFFFF;" d="M-881.851-759.284c-3.087-5.722-6.651-10.706-10.607-16.841
		c-7.307-11.337-16.417-19.569-25.573-28.586c-1.51-11.79,1.549-27.736,5.282-38.867c2.103-6.265,8.894-22.341,8.894-22.341
		c4.961-1.987,10.702-2.615,16.973-6.55c2.378-1.493,5.036-2.767,6.27-5.51c4.147-9.215,8.424-18.403,9.675-28.75
		c16.711-10.376,35.179-15.234,53.939-19.206c18.318-3.878,39.382-3.438,57.307,2.24c17.251,5.463,39.337,16.373,49.055,33.378
		c5.995,10.49,10.315,30.991,7.501,43.018c-3.951,16.88-15.047,33.009-30.615,39.237c-8.155,3.263-20.115,5.625-28.843,4.249
		c-21.392-3.375-9.382-33.034-26.218-42.902c-8.771-5.139-21.305-3.86-30.133,0.541c-8.289,4.134-15.756,12.838-15.37,23.193
		c0.785,20.919,36.177,29.38,50.381,36.372c19.85,9.771,40.058,21.365,55.451,38.251c8.297,9.101,15.025,19.837,19.011,31.824
		c3.805,11.445,5.071,27.114,2.428,38.994c-10.544,47.382-56.827,77.189-100.258,79.677c-20.425,1.171-41.224-1.278-60.684-8.303
		c-9.462-3.416-18.862-7.036-28.268-10.625c-1.268-0.483-7.378-4.62-8.3-3.679c5.49-5.596,8.917-11.858,13.805-18.975
		c7.69-11.189,10.796-20.017,16.322-32.544c0.973-2.207,3.507-7.707,4.085-9.626c17.295,6.545,70.091,21.551,75.563-9.316
		c3.868-21.822-22.317-28.808-36.721-33.423c-14.76-4.729-28.18-10.511-42.44-16.801
		C-874.778-741.528-878.398-752.88-881.851-759.284z"/>
	<g>
		<path style="fill-rule:evenodd;clip-rule:evenodd;fill:#FFFFFF;" d="M221.956-1346.64c-23.751,23.075-61.994,24.882-92.659,20.458
			c-9.19-1.326-18.473-3.31-27.392-5.953c-19.059-5.646-47.866-16.969-51.33-40.17c-1.123-7.527,1.22-10.342,8.629-11.007
			c3.413-0.307,6.846-0.365,10.256-0.696c1.804-0.174,3.613-0.563,5.354-1.085c2.821-0.847,4.131-3.009,3.603-5.882
			c-0.534-2.921-2.858-3.27-5.334-3.037c-9.323,0.876-18.66,1.628-27.971,2.635c-9.092,0.982-18.165,2.056-27.335,1.835
			c-3.157-0.075-5.961-0.722-7.325-4.04c-1.76-4.28,0.192-7.597,4.969-8.657c9.651-2.144,19.475-2.459,29.287-2.903
			c5.758-0.26,5.758-0.318,5.535-6.359c-0.372-10.201,5.674-17.926,15.407-20.111c3.119-0.699,5.839-0.11,8.59,1.178
			c12.138,5.692,20.828,17.351,33.064,23.465c12.784,6.387,27.606,9.395,41.655,6.354c22.317-4.828,30.414-26.177,10.162-40.812
			c-13.621-9.843-31.184-13.435-47.546-12.166c-4.334,0.335-8.681,0.851-13.031,0.888c-2.856,0.023-6.157-0.072-8.739-1.485
			c-1.377-0.754-2.713-2.142-3.387-3.599c-2.012-4.349,1.166-8.329,5.198-9.549c3.746-1.134,7.978-0.57,11.837-0.526
			c4.103,0.048,8.203,0.051,12.306,0.041c2.305-0.005,4.609-0.018,6.915-0.029c2.504-0.013,5.1,0.151,7.504-0.545
			c3.478-1.007,2.07-7.682,0.798-8.481c-4.98-3.123-15.626-0.388-21.443-0.349c-19.396,0.132-32.145-7.707-41.674-23.639
			c-2.026-3.388-4.083-6.776-5.158-10.649c-1.617-5.841,0.052-9.494,6.076-10.006c4.202-0.357,25.995,0.333,21.928-8.544
			c-2.415-5.261-11.944-3.404-16.322-3.208c-12.324,0.552-24.652,1.699-36.976,2.273c-1.822,0.085-3.675,0.088-5.479-0.142
			c-4.278-0.551-5.983-2.603-6.574-7.583c-0.439-3.721,1.314-7.147,5.361-7.712c7.871-1.1,16.192-0.882,24.399-1.21
			c6.246-0.25,6.79-1.759,6.688-7.901c-0.057-3.261-0.501-6.477-0.12-9.787c0.654-5.646-0.331-6.417-6.066-6.109
			c-13.228,0.713-26.458,1.499-39.695,2.012c-6.367,0.247-9.864-3.805-9.192-10.027c0.354-3.304,1.744-5.825,5.241-6.424
			c3.321-0.569,8.462-0.568,12.015-0.627c24.899-0.419,47.782-2.002,72.646-3.593c6.146-0.394,7.548-9.296,0.565-8.93
			c-8.704,0.456-24.993,2.43-26.743,0.52c-2.864-3.13-0.163-6.899,1.983-9.562c20.549-25.471,52.164-39.088,83.688-41.452
			c23.656-1.775,54.208-2.736,74.813,11.323c12.987,8.862,22.678,24.787,24.719,40.564c1.133,8.743,1.509,17.518,0.172,26.285
			c-1.047,8.184-4.581,15.456-8.011,22.75c-1.021,2.171-3.21,3.183-5.17,4.367c-4.351,2.628-9.277,3.606-13.986,5.206
			c-8.953,1.985-18.027,2.88-27.178,2.842c-8.457-0.036-9.755-1.356-10.38-10.138c-0.299-4.19-0.191-8.421-0.691-12.583
			c-1.39-11.571-11.038-22.43-21.581-23.099c-11.507-0.732-22.213,2.258-30.685,10.957c-6.844,7.022-8.988,15.365-6.692,25.052
			c2.484,10.5,10.457,15.562,18.961,19.708c24.408,11.898,50.598,16.136,70.805,36.269c29.403,29.291,45.66,70.447,25.162,109.611
			C239.859-1367.958,231.996-1356.392,221.956-1346.64z"/>
		<path style="fill-rule:evenodd;clip-rule:evenodd;fill:#FFFFFF;" d="M50.408-1453.287c-4.118,0.151-8.229,0.431-12.346,0.589
			c-3.383,0.133-7.124,0.02-10.22-1.56c-2.63-1.339-4.203-4.452-2.508-7.206c3.059-4.963,10.72-4.451,15.675-4.867
			c4.301-0.362,8.615-0.542,12.927-0.7c2.455-0.089,4.912-0.153,7.369-0.22c3.909-0.099,8.061-1.241,11.356,1.214
			c4.135,3.076,3.811,7.575-0.697,10.041c-3.517,1.922-7.459,1.961-11.315,2.236C57.241-1453.515,53.824-1453.413,50.408-1453.287z"
			/>
		<path style="fill-rule:evenodd;clip-rule:evenodd;fill:#FFFFFF;" d="M-3.47-1529.771c-2.326,0.064-4.646,0.257-6.973,0.331
			c-1.914,0.061-4.033-0.13-5.818-1.771c-1.515-1.394-2.472-4.535-1.569-7.251c1.627-4.894,5.974-4.221,8.77-4.534
			c2.426-0.272,4.862-0.361,7.301-0.429c1.387-0.039,2.776-0.05,4.166-0.065c2.21-0.018,4.533-1.072,6.452,1.449
			c2.404,3.16,2.313,7.646-0.186,10.016c-1.95,1.848-4.181,1.804-6.355,1.998C0.393-1529.856-1.539-1529.826-3.47-1529.771z"/>
	</g>
	<path style="fill-rule:evenodd;clip-rule:evenodd;fill:#FFFFFF;" d="M244.557-1459.17c-2.386-4.422-5.142-8.273-8.196-13.014
		c-5.647-8.761-12.686-15.122-19.762-22.089c-1.165-9.11,1.198-21.433,4.083-30.033c1.625-4.841,6.874-17.264,6.874-17.264
		c3.832-1.536,8.269-2.021,13.113-5.062c1.838-1.154,3.891-2.138,4.846-4.258c3.203-7.12,6.507-14.22,7.475-22.216
		c12.914-8.018,27.185-11.772,41.682-14.841c14.154-2.997,30.431-2.656,44.281,1.731c13.331,4.222,30.398,12.652,37.908,25.792
		c4.631,8.106,7.971,23.948,5.795,33.242c-3.054,13.043-11.627,25.506-23.657,30.319c-6.301,2.521-15.543,4.347-22.287,3.283
		c-16.529-2.609-7.25-25.527-20.258-33.152c-6.78-3.971-16.464-2.982-23.286,0.418c-6.404,3.194-12.177,9.92-11.876,17.922
		c0.606,16.165,27.955,22.702,38.93,28.105c15.339,7.551,30.955,16.51,42.849,29.558c6.411,7.034,11.611,15.329,14.69,24.592
		c2.941,8.844,3.92,20.952,1.877,30.131c-8.147,36.614-43.911,59.646-77.473,61.568c-15.782,0.906-31.855-0.987-46.892-6.415
		c-7.311-2.64-14.575-5.438-21.844-8.211c-0.979-0.373-5.699-3.569-6.414-2.842c4.243-4.324,6.891-9.163,10.669-14.663
		c5.942-8.646,8.342-15.467,12.612-25.147c0.753-1.706,2.71-5.955,3.156-7.438c13.365,5.057,54.163,16.653,58.392-7.2
		c2.987-16.862-17.245-22.26-28.377-25.827c-11.404-3.654-21.774-8.122-32.793-12.982
		C250.023-1445.449,247.224-1454.222,244.557-1459.17z"/>
	<g>
		<path style="fill:#FFFFFF;" d="M280.526-762.63c-14.589,6.431-31.816,9.188-46.085,10.974
			c-22.516,2.818-45.268,2.066-67.609-1.796c-11.803-2.04-23.77-4.072-34.354-10.012c-10.423-5.849-17.995-14.999-22.753-25.88
			c-2.777-6.351-4.5-13.005-6.512-19.615c-0.359-1.183-4.567-15.467-6.143-20.144c0.005,0,129.119,0,129.119,0L119.627-942.278
			h85.951c24.367,25.413,48.742,50.693,73.115,75.839c20.162,23.397,49.495,58.958,22.602,89.388
			C295.797-770.829,288.562-766.172,280.526-762.63z M109.516-954.723c0-24.882-1.512-46.874,20.295-64.052
			c12.646-9.961,29.046-14.754,44.67-17.482c29.256-5.108,62.827-4.094,89.655,9.828c26.767,13.892,42.073,34.482,46.06,64.263
			c0.102,0.758-0.827,7.443,0,7.443C310.141-954.723,109.516-954.723,109.516-954.723z"/>
	</g>
	<g>
		<path style="fill:#FFFFFF;" d="M379.861-712.422c-10.317,4.548-22.501,6.498-32.592,7.761c-15.924,1.993-32.015,1.461-47.814-1.27
			c-8.348-1.443-16.811-2.88-24.297-7.081c-7.371-4.136-12.726-10.607-16.091-18.303c-1.964-4.491-3.183-9.197-4.605-13.872
			c-0.254-0.837-3.229-10.938-4.344-14.246c0.003,0,91.315,0,91.315,0l-75.363-80.039h60.786
			c17.233,17.973,34.472,35.851,51.708,53.635c14.26,16.547,35.004,41.696,15.984,63.217
			C390.661-718.22,385.544-714.927,379.861-712.422z M258.92-848.273c0-17.597-1.069-33.15,14.353-45.299
			c8.943-7.044,20.542-10.434,31.592-12.364c20.689-3.613,44.432-2.896,63.405,6.951c18.93,9.825,29.755,24.386,32.574,45.448
			c0.071,0.536-0.585,5.264,0,5.264C400.805-848.273,258.92-848.273,258.92-848.273z"/>
	</g>
	<text transform="matrix(1 0 0 1 497.9551 -744.9238)" style="fill:#FFFFFF; font-family:'ARDESTINE'; font-size:313.5719;">S</text>
	<path style="fill-rule:evenodd;clip-rule:evenodd;fill:#FFFFFF;" d="M162.199-934.09c0,4.418-3.582,8-8,8H73.532
		c-4.418,0-8-3.582-8-8l0,0c0-4.418,3.582-8,8-8h80.667C158.617-942.09,162.199-938.509,162.199-934.09L162.199-934.09z"/>
	<path style="fill-rule:evenodd;clip-rule:evenodd;fill:#FFFFFF;" d="M185.181-978.09c0,4.418-3.582,8-8,8H96.514
		c-4.418,0-8-3.582-8-8l0,0c0-4.418,3.582-8,8-8h80.667C181.599-986.09,185.181-982.509,185.181-978.09L185.181-978.09z"/>
	<path style="fill-rule:evenodd;clip-rule:evenodd;fill:#FFFFFF;" d="M176.199-1009.423c0,4.418-3.582,8-8,8H87.532
		c-4.418,0-8-3.582-8-8l0,0c0-4.418,3.582-8,8-8h80.667C172.617-1017.423,176.199-1013.842,176.199-1009.423L176.199-1009.423z"/>
	<path style="fill-rule:evenodd;clip-rule:evenodd;fill:#FFFFFF;" d="M219.532-900.09c0,4.418-3.582,8-8,8h-80.667
		c-4.418,0-8-3.582-8-8l0,0c0-4.418,3.582-8,8-8h80.667C215.95-908.09,219.532-904.509,219.532-900.09L219.532-900.09z"/>
	<path style="fill-rule:evenodd;clip-rule:evenodd;fill:#FFFFFF;" d="M206.865-872.257c0,4.418-3.582,8-8,8h-80.667
		c-4.418,0-8-3.582-8-8l0,0c0-4.418,3.582-8,8-8h80.667C203.283-880.257,206.865-876.675,206.865-872.257L206.865-872.257z"/>
	<path style="fill-rule:evenodd;clip-rule:evenodd;fill:#FFFFFF;" d="M176.199-806.257c0,4.418-3.582,8-8,8H87.532
		c-4.418,0-8-3.582-8-8l0,0c0-4.418,3.582-8,8-8h80.667C172.617-814.257,176.199-810.675,176.199-806.257L176.199-806.257z"/>
	<path style="fill-rule:evenodd;clip-rule:evenodd;fill:#FFFFFF;" d="M158.531-779.59c0,4.418-3.582,8-8,8H69.864
		c-4.418,0-8-3.582-8-8l0,0c0-4.418,3.582-8,8-8h80.667C154.949-787.59,158.531-784.009,158.531-779.59L158.531-779.59z"/>
	<path style="fill-rule:evenodd;clip-rule:evenodd;fill:#FFFFFF;" d="M362.968-752.924c0,4.418-3.582,8-8,8h-80.667
		c-4.418,0-8-3.582-8-8l0,0c0-4.418,3.582-8,8-8h80.667C359.386-760.924,362.968-757.342,362.968-752.924L362.968-752.924z"/>
	<path style="fill-rule:evenodd;clip-rule:evenodd;fill:#FFFFFF;" d="M357.634-924.09c0,4.418-3.582,8-8,8h-80.667
		c-4.418,0-8-3.582-8-8l0,0c0-4.418,3.582-8,8-8h80.667C354.052-932.09,357.634-928.509,357.634-924.09L357.634-924.09z"/>
	<path style="fill-rule:evenodd;clip-rule:evenodd;fill:#FFFFFF;" d="M108.181-900.09c0,4.418-1.062,8-2.371,8H81.903
		c-1.31,0-2.371-3.582-2.371-8l0,0c0-4.418,1.062-8,2.371-8h23.906C107.119-908.09,108.181-904.509,108.181-900.09L108.181-900.09z"
		/>
	<path style="fill-rule:evenodd;clip-rule:evenodd;fill:#FFFFFF;" d="M73.532-872.257c0,4.418-0.865,8-1.931,8H52.128
		c-1.065,0-1.931-3.582-1.931-8l0,0c0-4.418,0.865-8,1.931-8h19.474C72.667-880.257,73.532-876.675,73.532-872.257L73.532-872.257z"
		/>
	<path style="fill-rule:evenodd;clip-rule:evenodd;fill:#FFFFFF;" d="M162.199-372.09c0,4.418-3.582,8-8,8H73.532
		c-4.418,0-8-3.582-8-8l0,0c0-4.418,3.582-8,8-8h80.667C158.617-380.09,162.199-376.509,162.199-372.09L162.199-372.09z"/>
	<path style="fill-rule:evenodd;clip-rule:evenodd;fill:#FFFFFF;" d="M185.181-416.09c0,4.418-3.582,8-8,8H96.514
		c-4.418,0-8-3.582-8-8l0,0c0-4.418,3.582-8,8-8h80.667C181.599-424.09,185.181-420.509,185.181-416.09L185.181-416.09z"/>
	<path style="fill-rule:evenodd;clip-rule:evenodd;fill:#FFFFFF;" d="M176.199-447.423c0,4.418-3.582,8-8,8H87.532
		c-4.418,0-8-3.582-8-8l0,0c0-4.418,3.582-8,8-8h80.667C172.617-455.423,176.199-451.842,176.199-447.423L176.199-447.423z"/>
	<path style="fill-rule:evenodd;clip-rule:evenodd;fill:#FFFFFF;" d="M219.532-338.09c0,4.418-3.582,8-8,8h-80.667
		c-4.418,0-8-3.582-8-8l0,0c0-4.418,3.582-8,8-8h80.667C215.95-346.09,219.532-342.509,219.532-338.09L219.532-338.09z"/>
	<path style="fill-rule:evenodd;clip-rule:evenodd;fill:#FFFFFF;" d="M206.865-310.257c0,4.418-3.582,8-8,8h-80.667
		c-4.418,0-8-3.582-8-8l0,0c0-4.418,3.582-8,8-8h80.667C203.283-318.257,206.865-314.675,206.865-310.257L206.865-310.257z"/>
	<path style="fill-rule:evenodd;clip-rule:evenodd;fill:#FFFFFF;" d="M176.199-244.257c0,4.419-3.582,8-8,8H87.532
		c-4.418,0-8-3.581-8-8l0,0c0-4.419,3.582-8,8-8h80.667C172.617-252.257,176.199-248.676,176.199-244.257L176.199-244.257z"/>
	<path style="fill-rule:evenodd;clip-rule:evenodd;fill:#FFFFFF;" d="M158.531-217.59c0,4.418-3.582,8-8,8H69.864
		c-4.418,0-8-3.582-8-8l0,0c0-4.419,3.582-8,8-8h80.667C154.949-225.59,158.531-222.009,158.531-217.59L158.531-217.59z"/>
	<path style="fill-rule:evenodd;clip-rule:evenodd;fill:#FFFFFF;" d="M108.181-338.09c0,4.418-1.062,8-2.371,8H81.903
		c-1.31,0-2.371-3.582-2.371-8l0,0c0-4.418,1.062-8,2.371-8h23.906C107.119-346.09,108.181-342.509,108.181-338.09L108.181-338.09z"
		/>
	<path style="fill-rule:evenodd;clip-rule:evenodd;fill:#FFFFFF;" d="M73.532-310.257c0,4.418-0.865,8-1.931,8H52.128
		c-1.065,0-1.931-3.582-1.931-8l0,0c0-4.418,0.865-8,1.931-8h19.474C72.667-318.257,73.532-314.675,73.532-310.257L73.532-310.257z"
		/>
	<linearGradient id="SVGID_12_" gradientUnits="userSpaceOnUse" x1="-305.9995" y1="-52.1475" x2="-305.9995" y2="-559.8525">
		<stop  offset="0" style="stop-color:#281A93"/>
		<stop  offset="0.1168" style="stop-color:#35239A"/>
		<stop  offset="0.5033" style="stop-color:#5D3FB0"/>
		<stop  offset="0.8112" style="stop-color:#7551BD"/>
		<stop  offset="1" style="stop-color:#7E57C2"/>
	</linearGradient>
	<path style="fill:url(#SVGID_12_);" d="M-55.187-313.338c4.054,4.053,4.054,10.622,0,14.676L-298.662-55.187
		c-4.052,4.053-10.623,4.053-14.675,0l-243.476-243.476c-4.052-4.053-4.053-10.624,0-14.676l243.476-243.476
		c4.053-4.053,10.623-4.052,14.675,0L-55.187-313.338z"/>
	<g>
		<defs>
			<path id="SVGID_13_" d="M-81.082-312.58c3.635,3.634,3.635,9.525,0,13.16L-299.419-81.082c-3.634,3.635-9.526,3.635-13.16,0
				L-530.918-299.42c-3.634-3.634-3.635-9.527,0-13.16l218.338-218.339c3.634-3.634,9.526-3.634,13.16,0L-81.082-312.58z"/>
		</defs>
		<clipPath id="SVGID_14_">
			<use xlink:href="#SVGID_13_"  style="overflow:visible;"/>
		</clipPath>
		<g style="clip-path:url(#SVGID_14_);">
			<path style="fill:#283593;" d="M-78.356-62c0,6.627-5.373,12-12,12h-431.288c-6.627,0-12-5.373-12-12v-112.59
				c0-6.627,5.373-12,12-12h431.288c6.627,0,12,5.373,12,12V-62z"/>
			<path style="fill:#393C9C;" d="M-78.356-137.082c0,6.627-5.372,12-12,12h-431.288c-6.627,0-12-5.373-12-12v-112.59
				c0-6.627,5.373-12,12-12h431.288c6.628,0,12,5.373,12,12V-137.082z"/>
			<path style="fill:#4A43A6;" d="M-78.356-212.164c0,6.627-5.372,12-12,12h-431.288c-6.627,0-12-5.373-12-12v-112.59
				c0-6.627,5.373-12,12-12h431.288c6.627,0,12,5.373,12,12V-212.164z"/>
			<path style="fill:#5C49AF;" d="M-78.356-287.246c0,6.627-5.372,12-12,12h-431.288c-6.627,0-12-5.373-12-12v-112.59
				c0-6.627,5.373-12,12-12h431.288c6.627,0,12,5.373,12,12V-287.246z"/>
			<path style="fill:#6D50B9;" d="M-78.356-362.328c0,6.627-5.373,12-12,12h-431.288c-6.627,0-12-5.373-12-12v-112.59
				c0-6.627,5.373-12,12-12h431.288c6.628,0,12,5.373,12,12V-362.328z"/>
			<path style="fill:#7E57C2;" d="M-78.356-437.41c0,6.627-5.373,12-12,12h-431.288c-6.627,0-12-5.373-12-12V-550
				c0-6.627,5.373-12,12-12h431.288c6.627,0,12,5.373,12,12V-437.41z"/>
		</g>
	</g>
	<g>
		<path style="fill:#FFFFFF;" d="M-668.256-362.148c-10.317,4.547-22.501,6.498-32.592,7.76c-15.924,1.993-32.015,1.461-47.814-1.27
			c-8.348-1.443-16.811-2.88-24.297-7.081c-7.371-4.136-12.726-10.607-16.091-18.303c-1.964-4.491-3.183-9.197-4.605-13.872
			c-0.254-0.836-3.229-10.938-4.344-14.246c0.003,0,91.315,0,91.315,0l-75.363-80.039h60.786
			c17.233,17.973,34.472,35.852,51.708,53.635c14.26,16.547,35.004,41.696,15.984,63.217
			C-657.457-367.947-662.574-364.654-668.256-362.148z M-789.198-498c0-17.598-1.069-33.15,14.353-45.299
			c8.943-7.044,20.542-10.434,31.592-12.364c20.689-3.613,44.432-2.896,63.405,6.951c18.93,9.825,29.755,24.386,32.574,45.448
			c0.071,0.535-0.585,5.264,0,5.264C-647.313-498-789.198-498-789.198-498z"/>
	</g>
	<g>
		<path style="fill:#FFFFFF;" d="M-799.087-232.201c-14.589,6.432-31.816,9.188-46.085,10.975
			c-22.516,2.816-45.268,2.064-67.609-1.797c-11.803-2.039-23.77-4.072-34.354-10.012c-10.423-5.85-17.995-15-22.753-25.881
			c-2.777-6.35-4.5-13.004-6.512-19.613c-0.359-1.184-4.567-15.467-6.143-20.145c0.005,0,129.119,0,129.119,0l-106.563-113.175
			h85.951c24.367,25.414,48.742,50.693,73.115,75.839c20.162,23.398,49.495,58.958,22.602,89.389
			C-783.817-240.398-791.052-235.742-799.087-232.201z M-970.098-424.294c0-24.881-1.512-46.873,20.295-64.051
			c12.646-9.961,29.046-14.754,44.67-17.482c29.256-5.108,62.827-4.094,89.655,9.828c26.767,13.892,42.073,34.482,46.06,64.262
			c0.102,0.759-0.827,7.443,0,7.443c-2.95-0.001-10.018-6.217-12.465-7.643c-32.317-18.835-58.23-40.383-107.884-32.274
			c-10.765,1.758-21.826,4.673-31.857,8.906c-11.53,4.866-22.523,10.872-32.711,18.145
			C-956.478-435.632-970.098-427.468-970.098-424.294z"/>
	</g>
	<g>
		<path style="fill:#FFFFFF;" d="M-811.87-99.741c-10.317,4.547-22.501,6.498-32.592,7.76c-15.924,1.993-32.015,1.461-47.814-1.27
			c-8.348-1.443-16.811-2.88-24.297-7.081c-7.371-4.136-12.726-10.607-16.091-18.303c-1.964-4.491-3.183-9.197-4.605-13.872
			c-0.254-0.836-3.229-10.938-4.344-14.246c0.003,0,91.315,0,91.315,0l-75.363-80.039h60.786
			c17.233,17.973,34.472,35.852,51.708,53.635c14.26,16.547,35.004,41.696,15.984,63.217
			C-801.07-105.54-806.188-102.247-811.87-99.741z M-932.812-235.593c0-17.598-1.069-33.149,14.353-45.299
			c8.943-7.044,20.542-10.435,31.592-12.364c20.689-3.612,44.432-2.895,63.405,6.951c18.93,9.824,29.755,24.387,32.574,45.448
			c0.071,0.535-0.585,5.264,0,5.264C-790.927-235.593-932.812-235.593-932.812-235.593z"/>
	</g>
	
		<image style="overflow:visible;" width="410" height="280" xlink:href="D7295B9A.jpg"  transform="matrix(2.1607 0 0 2.1607 649 -234)">
	</image>
	<g>
		<g>
			<linearGradient id="SVGID_15_" gradientUnits="userSpaceOnUse" x1="268.2686" y1="350.1211" x2="155.418" y2="154.6581">
				<stop  offset="0" style="stop-color:#281A93"/>
				<stop  offset="0.1973" style="stop-color:#2D1D96"/>
				<stop  offset="0.4249" style="stop-color:#3B279D"/>
				<stop  offset="0.6674" style="stop-color:#5238AA"/>
				<stop  offset="0.9189" style="stop-color:#724EBB"/>
				<stop  offset="1" style="stop-color:#7E57C2"/>
			</linearGradient>
			<path style="fill:url(#SVGID_15_);" d="M280.792,145.164c-10.331,0-20.661-0.063-30.991,0.053
				c-17.808,0.2-36.361-0.292-53.772-0.135c-20.023,0.181-37.694,3.752-51.583,18.796c-13.75,14.895-20.241,32.845-19.859,50.795
				c0.382,17.951,9.929,34.756,21.388,44.304c8.984,7.486,17.571,13.96,29.487,15.567c11.283,1.524,22.681-0.405,33.998-0.269
				c9.566,0.115,29.413-2.12,35.022,7.93c3.778,6.77,6.504,23.299-3.083,27.044c-4.755,1.858-11.258,1.466-16.29,2.025
				c-16.489,1.833-33.186,1.438-49.746,1.138c-4.262-0.077-50.828-2.181-50.828-2.023c0,0-0.713,17.716,4.635,25.354
				c5.346,7.639,12.604,15.276,19.479,18.332c13.459,5.982,28.341,7.385,42.91,7.49c13.899,0.101,28.049,0.539,41.925-0.05
				c17.63-0.749,32.779-7.583,44.636-20.808c9.93-11.076,19.479-28.645,19.479-43.157c0-25.918-12.339-47.337-34.947-60.188
				c-23.232-13.206-48.279-4.76-73.022-8.647c-11.175-1.756-19.516-11.196-16.145-22.896c4.404-15.281,31.646-13.372,43.528-13.681
				c29.407-0.763,38.956-4.2,46.212-12.221C270.479,171.898,280.792,145.164,280.792,145.164z"/>
			<g>
				<linearGradient id="SVGID_16_" gradientUnits="userSpaceOnUse" x1="373.5586" y1="349.3633" x2="293.2124" y2="210.1996">
					<stop  offset="0" style="stop-color:#281A93"/>
					<stop  offset="0.1973" style="stop-color:#2D1D96"/>
					<stop  offset="0.4249" style="stop-color:#3B279D"/>
					<stop  offset="0.6674" style="stop-color:#5238AA"/>
					<stop  offset="0.9189" style="stop-color:#724EBB"/>
					<stop  offset="1" style="stop-color:#7E57C2"/>
				</linearGradient>
				<path style="fill:url(#SVGID_16_);" d="M382.475,203.438c-7.355,0-14.71-0.045-22.066,0.038
					c-12.678,0.143-25.887-0.207-38.284-0.096c-14.255,0.128-26.836,2.671-36.725,13.383c-9.789,10.604-14.411,23.384-14.139,36.164
					c0.271,12.779,7.069,24.745,15.228,31.542c6.396,5.33,12.509,9.938,20.993,11.085c8.034,1.084,16.147-0.29,24.206-0.192
					c6.811,0.082,20.941-1.51,24.935,5.646c2.689,4.818,4.631,16.588-2.194,19.254c-3.386,1.322-8.017,1.043-11.599,1.442
					c-11.739,1.305-23.627,1.023-35.418,0.809c-3.033-0.054-36.188-1.552-36.188-1.439c0,0-0.507,12.612,3.3,18.051
					s8.973,10.877,13.868,13.053c9.583,4.259,20.178,5.257,30.551,5.333c9.896,0.07,19.97,0.383,29.849-0.036
					c12.553-0.533,23.338-5.398,31.78-14.814c7.069-7.886,13.867-20.394,13.867-30.727c0-18.452-8.785-33.702-24.882-42.853
					c-16.54-9.401-34.372-3.388-51.989-6.156c-7.955-1.25-13.894-7.972-11.494-16.301c3.136-10.88,22.53-9.52,30.99-9.739
					c20.938-0.544,27.736-2.99,32.901-8.701C375.132,222.474,382.475,203.438,382.475,203.438z"/>
			</g>
		</g>
		<g>
			<path style="fill:#FFFFFF;" d="M273.851,138.284c-10.332,0-20.661-0.063-30.992,0.054c-17.807,0.2-36.36-0.292-53.771-0.135
				c-20.023,0.181-37.694,3.752-51.583,18.796c-13.75,14.895-20.241,32.845-19.859,50.795s9.929,34.756,21.388,44.304
				c8.984,7.486,17.571,13.96,29.487,15.567c11.283,1.524,22.681-0.405,33.997-0.269c9.567,0.115,29.414-2.12,35.023,7.93
				c3.778,6.77,6.504,23.299-3.083,27.044c-4.755,1.858-11.258,1.466-16.29,2.025c-16.489,1.833-33.186,1.438-49.747,1.138
				c-4.261-0.077-50.827-2.181-50.827-2.023c0,0-0.713,17.716,4.635,25.354c5.346,7.639,12.604,15.276,19.479,18.332
				c13.459,5.982,28.341,7.385,42.91,7.49c13.899,0.1,28.049,0.539,41.925-0.05c17.63-0.749,32.779-7.583,44.636-20.808
				c9.93-11.076,19.479-28.645,19.479-43.157c0-25.918-12.339-47.337-34.947-60.188c-23.232-13.206-48.279-4.76-73.022-8.647
				c-11.175-1.756-19.516-11.197-16.145-22.896c4.403-15.281,31.646-13.372,43.528-13.681c29.407-0.763,38.956-4.2,46.212-12.222
				C263.538,165.02,273.851,138.284,273.851,138.284z"/>
			<g>
				<path style="fill:#FFFFFF;" d="M375.533,196.56c-7.355,0-14.711-0.045-22.066,0.038c-12.678,0.143-25.888-0.207-38.284-0.096
					c-14.256,0.128-26.836,2.671-36.725,13.382c-9.789,10.604-14.411,23.385-14.139,36.165c0.271,12.779,7.069,24.745,15.228,31.542
					c6.396,5.33,12.509,9.938,20.993,11.084c8.034,1.085,16.147-0.289,24.206-0.191c6.811,0.082,20.941-1.51,24.935,5.646
					c2.689,4.818,4.631,16.587-2.194,19.254c-3.386,1.322-8.017,1.043-11.599,1.442c-11.739,1.305-23.627,1.023-35.418,0.809
					c-3.033-0.054-36.188-1.552-36.188-1.439c0,0-0.507,12.612,3.3,18.051s8.973,10.877,13.868,13.053
					c9.583,4.259,20.178,5.257,30.551,5.333c9.896,0.07,19.97,0.383,29.849-0.036c12.553-0.533,23.338-5.399,31.779-14.814
					c7.07-7.886,13.868-20.395,13.868-30.727c0-18.452-8.785-33.702-24.882-42.853c-16.54-9.401-34.372-3.388-51.989-6.156
					c-7.955-1.25-13.895-7.972-11.494-16.301c3.136-10.88,22.53-9.521,30.99-9.74c20.938-0.543,27.735-2.989,32.901-8.7
					C368.19,215.595,375.533,196.56,375.533,196.56z"/>
			</g>
		</g>
	</g>
	<g>
		<g>
			<linearGradient id="SVGID_17_" gradientUnits="userSpaceOnUse" x1="-462.3252" y1="293.5488" x2="-523.77" y2="187.1233">
				<stop  offset="0" style="stop-color:#281A93"/>
				<stop  offset="0.1973" style="stop-color:#2D1D96"/>
				<stop  offset="0.4249" style="stop-color:#3B279D"/>
				<stop  offset="0.6674" style="stop-color:#5238AA"/>
				<stop  offset="0.9189" style="stop-color:#724EBB"/>
				<stop  offset="1" style="stop-color:#7E57C2"/>
			</linearGradient>
			<path style="fill:url(#SVGID_17_);" d="M-455.506,181.955c-5.625,0-11.25-0.035-16.875,0.029
				c-9.696,0.107-19.797-0.16-29.278-0.074c-10.902,0.099-20.524,2.042-28.086,10.234c-7.487,8.109-11.021,17.883-10.813,27.656
				s5.406,18.924,11.645,24.122c4.893,4.077,9.568,7.602,16.056,8.478c6.144,0.829,12.349-0.222,18.512-0.147
				c5.208,0.063,16.015-1.153,19.069,4.318c2.058,3.686,3.542,12.686-1.679,14.725c-2.589,1.013-6.129,0.798-8.87,1.103
				c-8.978,0.997-18.068,0.783-27.085,0.62c-2.32-0.042-27.675-1.188-27.675-1.102c0,0-0.388,9.646,2.524,13.804
				c2.911,4.159,6.862,8.317,10.605,9.982c7.328,3.257,15.432,4.02,23.364,4.078c7.568,0.055,15.272,0.294,22.828-0.027
				c9.599-0.407,17.848-4.129,24.303-11.329c5.407-6.031,10.606-15.596,10.606-23.499c0-14.111-6.718-25.773-19.028-32.77
				c-12.65-7.19-26.288-2.593-39.759-4.709c-6.085-0.956-10.626-6.097-8.791-12.467c2.398-8.319,17.23-7.28,23.7-7.449
				c16.012-0.415,21.211-2.286,25.162-6.652C-461.121,196.511-455.506,181.955-455.506,181.955z"/>
			<path style="fill:#FFFFFF;stroke:#333999;stroke-width:3;stroke-miterlimit:10;" d="M-459.286,178.209
				c-5.626,0-11.25-0.034-16.875,0.029c-9.695,0.107-19.798-0.159-29.278-0.074c-10.902,0.099-20.523,2.043-28.086,10.234
				c-7.486,8.109-11.021,17.884-10.813,27.657c0.208,9.773,5.406,18.924,11.645,24.123c4.892,4.075,9.567,7.601,16.056,8.476
				c6.144,0.83,12.349-0.221,18.511-0.146c5.209,0.063,16.016-1.154,19.069,4.317c2.057,3.687,3.542,12.687-1.678,14.726
				c-2.589,1.012-6.13,0.798-8.87,1.103c-8.979,0.998-18.069,0.782-27.086,0.619c-2.32-0.042-27.674-1.188-27.674-1.102
				c0,0-0.389,9.646,2.523,13.805c2.911,4.159,6.862,8.318,10.605,9.981c7.328,3.258,15.431,4.021,23.364,4.079
				c7.568,0.054,15.272,0.294,22.827-0.027c9.6-0.408,17.848-4.129,24.304-11.329c5.407-6.031,10.605-15.597,10.605-23.498
				c0-14.112-6.718-25.774-19.028-32.771c-12.65-7.19-26.288-2.591-39.759-4.709c-6.084-0.955-10.626-6.096-8.791-12.466
				c2.398-8.321,17.23-7.281,23.701-7.449c16.012-0.415,21.211-2.287,25.161-6.654C-464.9,192.766-459.286,178.209-459.286,178.209z
				"/>
		</g>
		<g>
			<g>
				<linearGradient id="SVGID_18_" gradientUnits="userSpaceOnUse" x1="-234.6387" y1="295.0098" x2="-278.3857" y2="219.2376">
					<stop  offset="0" style="stop-color:#281A93"/>
					<stop  offset="0.1973" style="stop-color:#2D1D96"/>
					<stop  offset="0.4249" style="stop-color:#3B279D"/>
					<stop  offset="0.6674" style="stop-color:#5238AA"/>
					<stop  offset="0.9189" style="stop-color:#724EBB"/>
					<stop  offset="1" style="stop-color:#7E57C2"/>
				</linearGradient>
				<path style="fill:url(#SVGID_18_);" d="M-229.785,215.557c-4.005,0-8.009-0.024-12.015,0.021
					c-6.903,0.079-14.095-0.112-20.845-0.051c-7.761,0.069-14.611,1.454-19.996,7.286c-5.33,5.773-7.847,12.732-7.698,19.691
					c0.147,6.957,3.849,13.473,8.292,17.173c3.481,2.902,6.81,5.412,11.43,6.036c4.375,0.59,8.792-0.158,13.18-0.105
					c3.708,0.046,11.402-0.821,13.577,3.075c1.464,2.623,2.521,9.031-1.195,10.483c-1.843,0.72-4.365,0.567-6.315,0.785
					c-6.392,0.71-12.864,0.558-19.284,0.44c-1.651-0.029-19.704-0.846-19.704-0.784c0,0-0.276,6.866,1.797,9.828
					c2.072,2.962,4.886,5.923,7.551,7.107c5.218,2.318,10.987,2.863,16.634,2.904c5.388,0.038,10.874,0.207,16.252-0.021
					c6.834-0.29,12.707-2.938,17.304-8.065c3.849-4.295,7.55-11.104,7.55-16.73c0-10.047-4.784-18.351-13.547-23.333
					c-9.006-5.118-18.715-1.845-28.308-3.352c-4.332-0.681-7.565-4.341-6.258-8.876c1.708-5.924,12.267-5.183,16.874-5.303
					c11.4-0.296,15.102-1.628,17.915-4.737C-233.782,225.922-229.785,215.557-229.785,215.557z"/>
			</g>
			<g>
				<g>
					<path style="fill:#FFFFFF;stroke:#333999;stroke-width:3;stroke-miterlimit:10;" d="M-233.564,211.812
						c-4.005,0-8.01-0.024-12.015,0.021c-6.903,0.077-14.095-0.113-20.845-0.053c-7.762,0.07-14.611,1.455-19.996,7.286
						c-5.33,5.775-7.846,12.733-7.698,19.691c0.147,6.959,3.849,13.475,8.292,17.175c3.482,2.902,6.811,5.412,11.43,6.034
						c4.375,0.592,8.792-0.156,13.18-0.103c3.708,0.044,11.402-0.823,13.576,3.074c1.464,2.623,2.521,9.031-1.195,10.483
						c-1.844,0.719-4.365,0.567-6.315,0.785c-6.392,0.71-12.865,0.557-19.285,0.439c-1.651-0.029-19.703-0.845-19.703-0.783
						c0,0-0.276,6.867,1.796,9.828c2.073,2.962,4.886,5.922,7.552,7.106c5.217,2.32,10.986,2.862,16.634,2.904
						c5.388,0.039,10.874,0.209,16.252-0.02c6.834-0.29,12.707-2.94,17.303-8.066c3.849-4.293,7.55-11.104,7.55-16.73
						c0-10.047-4.783-18.35-13.547-23.332c-9.006-5.119-18.715-1.844-28.308-3.352c-4.332-0.682-7.565-4.341-6.258-8.876
						c1.707-5.924,12.267-5.184,16.874-5.304c11.4-0.295,15.102-1.627,17.915-4.736S-233.564,211.812-233.564,211.812z"/>
				</g>
			</g>
		</g>
		<g>
			<path style="fill:none;stroke:#333999;stroke-width:3;stroke-miterlimit:10;" d="M-218.796,297.57v-65.302h16.504v22.255
				c1.681-2.157,3.585-3.769,5.712-4.832c2.126-1.064,4.476-1.596,7.049-1.596c2.649,0,4.979,0.48,6.992,1.44
				c2.012,0.961,3.718,2.416,5.12,4.367c1.248,1.744,2.133,3.9,2.655,6.472c0.521,2.571,0.783,6.621,0.783,12.147v25.048h-16.505
				v-24.959c0-3.664-0.42-6.185-1.261-7.559c-0.841-1.375-2.292-2.062-4.355-2.062c-2.089,0-3.643,0.798-4.661,2.394
				c-1.019,1.596-1.528,4.034-1.528,7.315v24.87H-218.796z"/>
			<path style="fill:none;stroke:#333999;stroke-width:3;stroke-miterlimit:10;" d="M-167.563,273.409
				c0-7.979,2.088-14.268,6.266-18.863c4.177-4.596,9.92-6.894,17.23-6.894c7.31,0,13.047,2.298,17.211,6.894
				s6.247,10.884,6.247,18.863c0,8.039-2.089,14.363-6.266,18.975c-4.178,4.61-9.908,6.915-17.192,6.915
				c-7.285,0-13.022-2.305-17.211-6.915C-165.469,287.772-167.563,281.448-167.563,273.409z M-150.868,273.409
				c0,4.463,0.528,7.67,1.585,9.62c1.057,1.95,2.795,2.926,5.215,2.926c2.419,0,4.17-0.982,5.253-2.948
				c1.083-1.965,1.624-5.164,1.624-9.598c0-4.403-0.542-7.573-1.624-9.51c-1.083-1.935-2.833-2.903-5.253-2.903
				c-2.42,0-4.159,0.961-5.215,2.882C-150.339,265.799-150.868,268.976-150.868,273.409z"/>
			<path style="fill:none;stroke:#333999;stroke-width:3;stroke-miterlimit:10;" d="M-113.77,316.899v-67.519h14.633v6.162
				c1.629-2.571,3.527-4.455,5.692-5.652c2.165-1.197,4.75-1.795,7.756-1.795c5.374,0,9.729,2.343,13.066,7.026
				c3.336,4.685,5.005,10.839,5.005,18.465c0,7.802-1.662,14.023-4.986,18.663c-3.324,4.641-7.788,6.961-13.391,6.961
				c-2.573,0-4.814-0.503-6.724-1.508c-1.91-1.004-3.579-2.556-5.005-4.654v23.851H-113.77z M-84.123,273.587
				c0-3.783-0.548-6.591-1.643-8.424c-1.095-1.832-2.764-2.748-5.005-2.748c-2.42,0-4.183,0.894-5.292,2.682
				c-1.108,1.789-1.662,4.618-1.662,8.49c0,3.635,0.566,6.361,1.7,8.179c1.133,1.817,2.833,2.727,5.1,2.727
				c2.241,0,3.936-0.916,5.082-2.749C-84.696,279.911-84.123,277.192-84.123,273.587z"/>
		</g>
		<g>
			<path style="fill:none;stroke:#333999;stroke-width:3;stroke-miterlimit:10;" d="M-441.887,297.67v-66.007h16.504v22.495
				c1.681-2.181,3.585-3.809,5.712-4.885c2.126-1.075,4.476-1.613,7.049-1.613c2.649,0,4.979,0.486,6.992,1.457
				c2.012,0.971,3.718,2.441,5.12,4.414c1.248,1.763,2.133,3.943,2.655,6.542c0.521,2.599,0.783,6.692,0.783,12.278v25.318h-16.505
				v-25.229c0-3.704-0.42-6.251-1.261-7.641c-0.841-1.389-2.292-2.084-4.355-2.084c-2.089,0-3.643,0.807-4.661,2.42
				c-1.019,1.613-1.528,4.078-1.528,7.395v25.139H-441.887z"/>
			<path style="fill:none;stroke:#333999;stroke-width:3;stroke-miterlimit:10;" d="M-388.056,243.986V230.05h16.658v13.937
				H-388.056z M-388.056,297.67v-48.71h16.658v48.71H-388.056z"/>
			<path style="fill:none;stroke:#333999;stroke-width:3;stroke-miterlimit:10;" d="M-360.433,297.67v-37.731h-5.158V248.96h5.158
				v-3.047c0-5.438,1.152-9.44,3.458-12.01c2.305-2.569,5.89-3.854,10.755-3.854h9.246v12.188c-0.204,0-0.497-0.015-0.879-0.045
				c-0.382-0.029-0.663-0.045-0.84-0.045c-2.012,0-3.414,0.396-4.203,1.188c-0.79,0.792-1.185,2.174-1.185,4.146
				c0,0.149,0.013,0.381,0.039,0.694c0.025,0.313,0.038,0.575,0.038,0.784h7.03v10.979h-7.03v37.731H-360.433z"/>
			<path style="fill:none;stroke:#333999;stroke-width:3;stroke-miterlimit:10;" d="M-312.905,279.611
				c0,1.643,0.407,2.801,1.222,3.473c0.815,0.672,2.267,1.008,4.355,1.008c0.611,0,1.076-0.007,1.395-0.022
				c0.318-0.015,0.63-0.037,0.936-0.066v14.025c-2.038,0.149-3.891,0.262-5.559,0.336c-1.668,0.074-3.229,0.112-4.68,0.112
				c-5.248,0-8.909-1.03-10.984-3.092c-2.076-2.062-3.114-5.676-3.114-10.845v-24.422h-5.845V248.96h5.845v-15.057h16.429v15.057
				h7.755v11.158h-7.755V279.611z"/>
		</g>
	</g>
</g>
<g id="Capa_3">
</g>
</svg>
